<?xml version="1.0" standalone="no"?>
<!DOCTYPE svg PUBLIC "-//W3C//DTD SVG 20010904//EN"
 "http://www.w3.org/TR/2001/REC-SVG-20010904/DTD/svg10.dtd">
<svg version="1.0" xmlns="http://www.w3.org/2000/svg"
 width="1024.000000pt" height="1024.000000pt" viewBox="0 0 1024.000000 1024.000000"
 preserveAspectRatio="xMidYMid meet">
<metadata>
Created by potrace 1.16, written by Peter Selinger 2001-2019
</metadata>
<g transform="translate(0.000000,1024.000000) scale(0.100000,-0.100000)"
fill="#000000" stroke="none">
<path d="M3475 9665 c-1529 -553 -1591 -577 -1627 -614 -35 -37 -58 -91 -58
-137 0 -58 45 -135 93 -161 18 -9 290 -110 605 -224 316 -114 576 -210 578
-212 3 -2 -6 -47 -20 -98 -105 -406 -113 -970 -21 -1503 91 -523 280 -1000
548 -1380 328 -465 758 -771 1227 -872 120 -26 439 -27 560 -1 525 112 1007
489 1347 1053 237 391 397 870 462 1384 62 485 47 944 -43 1299 l-24 92 22 10
c27 11 797 289 802 289 2 0 4 -153 4 -340 l0 -340 -45 0 c-35 0 -47 -5 -59
-22 -14 -23 -76 -518 -76 -610 0 -78 0 -78 318 -78 173 0 281 4 293 11 11 5
24 20 29 33 12 32 -56 613 -76 644 -11 17 -24 22 -59 22 l-45 0 0 393 0 392
72 25 c112 38 168 107 168 205 0 41 -31 104 -67 138 -23 21 -373 152 -1609
599 -1369 495 -1588 572 -1644 575 -64 3 -86 -4 -1655 -572z m959 -1945 c281
-72 438 -290 358 -498 -11 -29 -45 -97 -76 -150 -70 -123 -76 -149 -43 -188
24 -27 29 -29 99 -28 95 2 195 36 488 166 515 230 640 280 830 330 94 25 136
31 230 32 100 1 121 -2 164 -22 151 -69 201 -172 200 -412 -3 -692 -551 -1618
-1135 -1920 -288 -148 -561 -166 -854 -55 -569 214 -1043 938 -1190 1819 -33
200 -38 271 -26 361 28 199 118 348 273 452 107 70 229 114 383 137 59 9 223
-4 299 -24z"/>
<path d="M3868 4187 l-287 -242 -513 -234 c-282 -129 -591 -272 -687 -319
-167 -81 -178 -87 -261 -170 -101 -101 -112 -120 -222 -397 -320 -801 -559
-1549 -652 -2030 -38 -203 -49 -311 -44 -472 5 -168 21 -223 84 -284 l35 -34
3772 -3 c2075 -1 3787 0 3804 3 44 8 98 65 118 124 87 263 -14 818 -309 1706
-155 464 -423 1170 -484 1274 -32 54 -121 147 -182 187 -73 49 -133 79 -780
376 l-615 284 -278 234 c-153 129 -281 236 -285 238 -4 1 -211 -202 -461 -452
l-454 -454 193 -1288 c105 -709 194 -1300 197 -1314 3 -20 -35 -79 -197 -300
-110 -151 -210 -284 -220 -295 -20 -19 -20 -19 -39 0 -11 11 -110 144 -220
295 -141 192 -200 281 -197 295 2 11 91 602 197 1313 l193 1293 -454 454
c-250 250 -457 455 -460 455 -3 -1 -134 -110 -292 -243z"/>
</g>
</svg>
